<?xml version="1.0" encoding="UTF-8" standalone="no"?>
<!-- Created with Inkscape (http://www.inkscape.org/) -->

<svg
   width="127.33781mm"
   height="41.204735mm"
   viewBox="0 0 127.33781 41.204735"
   version="1.1"
   id="svg1462"
   xmlns="http://www.w3.org/2000/svg"
   xmlns:svg="http://www.w3.org/2000/svg">
  <defs
     id="defs1459" />
  <g
     id="layer1"
     transform="translate(-35.750584,-122.86373)">
    <g
       id="g403"
       transform="matrix(0.5245002,0,0,0.5245002,-185.91405,12.712171)">
      <g
         fill="#541594"
         fill-opacity="1"
         id="g1289"
         transform="translate(303.57638,390.80836)">
        <path
           d="m 142.05365,-117.89593 v 0 q -4.09,0 -8.01,-0.69 -3.91,-0.7 -7.26,-2 -3.35,-1.31 -6.05,-3.31 v 0 q -1.04,-0.78 -1.44,-1.78 -0.39,-1 -0.17,-2 0.22,-1 0.87,-1.7 0.65,-0.7 1.61,-0.78 0.96,-0.09 2.09,0.61 v 0 q 3.91,2.78 8.35,4.04 4.44,1.26 10.01,1.26 v 0 q 7.83,0 11.61,-2.91 3.79,-2.92 3.79,-7.7 v 0 q 0,-3.92 -2.74,-6.14 -2.75,-2.21 -9.18,-3.52 v 0 l -9.05,-1.83 q -8.18,-1.74 -12.23,-5.7 -4.04,-3.95 -4.04,-10.57 v 0 q 0,-4.09 1.65,-7.43 1.65,-3.35 4.61,-5.75 2.96,-2.39 7.05,-3.69 4.09,-1.31 9.05,-1.31 v 0 q 5.48,0 10.22,1.52 4.74,1.53 8.57,4.57 v 0 q 0.96,0.78 1.31,1.78 0.34,1 0.08,1.92 -0.26,0.91 -0.91,1.52 -0.65,0.61 -1.65,0.7 -1,0.08 -2.22,-0.7 v 0 q -3.48,-2.61 -7.22,-3.78 -3.74,-1.18 -8.27,-1.18 v 0 q -4.61,0 -7.96,1.39 -3.35,1.4 -5.22,4.05 -1.87,2.65 -1.87,6.13 v 0 q 0,4.18 2.57,6.62 2.56,2.43 8.39,3.56 v 0 l 9.05,1.92 q 8.79,1.82 13.01,5.52 4.22,3.7 4.22,10.05 v 0 q 0,3.83 -1.57,7.05 -1.56,3.22 -4.52,5.52 -2.96,2.31 -7.14,3.53 -4.17,1.21 -9.39,1.21 z m 35.32,-0.34 v 0 q -1.74,0 -2.61,-1 -0.87,-1.01 -0.87,-2.83 v 0 -35.59 q 0,-1.82 0.87,-2.78 0.87,-0.96 2.61,-0.96 v 0 q 1.65,0 2.61,0.96 0.96,0.96 0.96,2.78 v 0 35.59 q 0,1.82 -0.92,2.83 -0.91,1 -2.65,1 z m 0,-52.9 v 0 q -2.18,0 -3.39,-1.18 -1.22,-1.17 -1.22,-3.17 v 0 q 0,-2.09 1.22,-3.18 1.21,-1.09 3.39,-1.09 v 0 q 2.26,0 3.44,1.09 1.17,1.09 1.17,3.18 v 0 q 0,2 -1.17,3.17 -1.18,1.18 -3.44,1.18 z m 34.54,68.9 v 0 q -4.61,0 -9,-1.08 -4.4,-1.09 -7.97,-3.44 v 0 q -1.04,-0.61 -1.34,-1.48 -0.31,-0.87 -0.13,-1.7 0.17,-0.82 0.78,-1.47 0.61,-0.66 1.43,-0.83 0.83,-0.17 1.7,0.26 v 0 q 3.83,2.35 7.31,3.22 3.48,0.87 6.87,0.87 v 0 q 6.18,0 9.36,-3.31 3.17,-3.3 3.17,-9.57 v 0 -9.83 h 0.87 q -1.3,5.05 -5.52,8.01 -4.22,2.95 -9.88,2.95 v 0 q -5.83,0 -10.09,-2.65 -4.26,-2.65 -6.57,-7.44 -2.31,-4.78 -2.31,-11.05 v 0 q 0,-4.7 1.31,-8.57 1.3,-3.87 3.78,-6.61 2.48,-2.74 6.01,-4.26 3.52,-1.53 7.87,-1.53 v 0 q 5.74,0 9.92,2.92 4.18,2.91 5.39,7.87 v 0 l -0.87,1.05 v -8.09 q 0,-1.74 0.92,-2.66 0.91,-0.91 2.56,-0.91 v 0 q 1.74,0 2.61,0.91 0.87,0.92 0.87,2.66 v 0 36.28 q 0,9.65 -4.82,14.57 -4.83,4.91 -14.23,4.91 z m -1.04,-23.14 v 0 q 4.09,0 7.04,-1.87 2.96,-1.87 4.57,-5.35 1.61,-3.48 1.61,-8.18 v 0 q 0,-7.05 -3.57,-11.18 -3.56,-4.13 -9.65,-4.13 v 0 q -4.01,0 -6.96,1.87 -2.96,1.87 -4.57,5.31 -1.61,3.43 -1.61,8.13 v 0 q 0,7.05 3.57,11.23 3.56,4.17 9.57,4.17 z m 35.93,7.31 v 0 q -1.74,0 -2.61,-0.96 -0.87,-0.95 -0.87,-2.69 v 0 -36.28 q 0,-1.74 0.87,-2.66 0.87,-0.91 2.52,-0.91 v 0 q 1.66,0 2.57,0.91 0.91,0.92 0.91,2.66 v 0 7.48 l -0.95,-1.05 q 1.82,-5.04 5.95,-7.61 4.14,-2.57 9.53,-2.57 v 0 q 5.05,0 8.4,1.83 3.35,1.83 5,5.53 1.65,3.69 1.65,9.35 v 0 23.32 q 0,1.74 -0.91,2.69 -0.91,0.96 -2.57,0.96 v 0 q -1.74,0 -2.65,-0.96 -0.91,-0.95 -0.91,-2.69 v 0 -22.89 q 0,-5.91 -2.31,-8.65 -2.31,-2.74 -7.35,-2.74 v 0 q -5.83,0 -9.27,3.61 -3.43,3.61 -3.43,9.61 v 0 21.06 q 0,3.65 -3.57,3.65 z m 64.12,0.17 v 0 q -6.7,0 -11.53,-2.65 -4.83,-2.65 -7.48,-7.53 -2.65,-4.87 -2.65,-11.65 v 0 q 0,-6.62 2.61,-11.53 2.61,-4.92 7.17,-7.7 4.57,-2.79 10.58,-2.79 v 0 q 4.26,0 7.65,1.44 3.4,1.44 5.79,4.13 2.39,2.7 3.65,6.53 1.26,3.83 1.26,8.61 v 0 q 0,1.39 -0.78,2.05 -0.78,0.65 -2.26,0.65 v 0 h -30.28 v -4.61 h 28.63 l -1.4,1.13 q 0,-4.7 -1.39,-7.96 -1.39,-3.27 -4.04,-5.01 -2.66,-1.74 -6.66,-1.74 v 0 q -4.44,0 -7.53,2.05 -3.08,2.04 -4.65,5.65 -1.57,3.61 -1.57,8.4 v 0 0.52 q 0,8.01 3.87,12.18 3.88,4.18 11.01,4.18 v 0 q 2.96,0 5.87,-0.78 2.92,-0.79 5.7,-2.61 v 0 q 1.22,-0.79 2.22,-0.74 1,0.04 1.61,0.61 0.61,0.56 0.83,1.39 0.21,0.82 -0.18,1.78 -0.39,0.96 -1.52,1.65 v 0 q -2.87,2.09 -6.79,3.22 -3.91,1.13 -7.74,1.13 z m 43.33,0 v 0 q -4.96,0 -8.31,-1.78 -3.35,-1.78 -5,-5.22 -1.66,-3.44 -1.66,-8.4 v 0 -22.18 h -5.83 q -1.47,0 -2.26,-0.74 -0.78,-0.74 -0.78,-2.05 v 0 q 0,-1.3 0.78,-2 0.79,-0.69 2.26,-0.69 v 0 h 5.83 v -10.01 q 0,-1.74 0.96,-2.65 0.96,-0.92 2.61,-0.92 v 0 q 1.65,0 2.57,0.92 0.91,0.91 0.91,2.65 v 0 10.01 h 10.96 q 1.48,0 2.27,0.69 0.78,0.7 0.78,2 v 0 q 0,1.31 -0.78,2.05 -0.79,0.74 -2.27,0.74 v 0 h -10.96 v 21.49 q 0,4.96 2.09,7.52 2.09,2.57 6.79,2.57 v 0 q 1.65,0 2.82,-0.35 1.18,-0.35 1.96,-0.35 v 0 q 0.78,-0.08 1.31,0.53 0.52,0.61 0.52,2.08 v 0 q 0,1.05 -0.39,1.92 -0.39,0.87 -1.35,1.22 v 0 q -1.05,0.35 -2.74,0.65 -1.7,0.3 -3.09,0.3 z"
           id="path1287" />
      </g>
    </g>
  </g>
</svg>
