<svg xmlns="http://www.w3.org/2000/svg" viewBox="73.07408362639524 50.23649540962265 428.8518327472095 474.7541431756888"> <g transform="rotate(25.602520506214308 287.5 264.6624117832274)"><svg xmlns="http://www.w3.org/2000/svg" xmlns:xlink="http://www.w3.org/1999/xlink" version="1.1" id="Layer_1" x="179.22973950051346" y="156.39215128374087" viewBox="0 0 508.5 508.5" xml:space="preserve" height="216.54052099897308" width="216.54052099897308" preserveAspectRatio="xMinYMin" enable-background="new 0 0 508.5 508.5" style="overflow: visible;"><linearGradient id="SVGID_1_" gradientUnits="userSpaceOnUse" x1="99.2771" y1="487.6215" x2="99.2771" y2="102.8329" style=""><stop offset="0" style="stop-color: #64009E;"></stop><stop offset="0.1069" style="stop-color: #6009A2;"></stop><stop offset="0.2779" style="stop-color: #5520AF;"></stop><stop offset="0.4918" style="stop-color: #4346C3;"></stop><stop offset="0.7401" style="stop-color: #2A7BDE;"></stop><stop offset="1" style="stop-color: #0CBAFF;"></stop></linearGradient><path class="st0" d="M99.3,308.6c-30,0-54.3-24.4-54.3-54.3c0-30,24.4-54.3,54.3-54.3c30,0,54.3,24.4,54.3,54.3   c0,7.3-1.4,14.3-4.1,20.6l33.2,33.2c10-15.5,15.8-34,15.8-53.8c0-54.8-44.4-99.3-99.3-99.3S0,199.4,0,254.3   c0,54.8,44.4,99.3,99.3,99.3c18.7,0,36.2-5.2,51.2-14.2l-33.7-33.7C111.3,307.6,105.4,308.6,99.3,308.6z" style="fill: url(#SVGID_1_);"></path><linearGradient id="SVGID_2_" gradientUnits="userSpaceOnUse" x1="409.218" y1="487.6215" x2="409.218" y2="102.8329" style=""><stop offset="0" style="stop-color: #64009E;"></stop><stop offset="0.1069" style="stop-color: #6009A2;"></stop><stop offset="0.2779" style="stop-color: #5520AF;"></stop><stop offset="0.4918" style="stop-color: #4346C3;"></stop><stop offset="0.7401" style="stop-color: #2A7BDE;"></stop><stop offset="1" style="stop-color: #0CBAFF;"></stop></linearGradient><path class="st1" d="M409.2,155c-54.8,0-99.3,44.4-99.3,99.3c0,19.5,5.6,37.6,15.3,52.9l33.3-33.3c-2.4-6.1-3.6-12.7-3.6-19.6   c0-30,24.4-54.3,54.3-54.3c29.9,0,54.3,24.4,54.3,54.3c0,29.9-24.4,54.3-54.3,54.3c-6.5,0-12.8-1.2-18.6-3.3l-33.5,33.5   c15.1,9.3,33,14.7,52.1,14.7c54.8,0,99.3-44.5,99.3-99.3C508.5,199.4,464.1,155,409.2,155z" style="fill: url(#SVGID_2_);"></path><linearGradient id="SVGID_3_" gradientUnits="userSpaceOnUse" x1="254.2505" y1="487.6215" x2="254.2505" y2="102.8329" style=""><stop offset="0" style="stop-color: #64009E;"></stop><stop offset="0.1069" style="stop-color: #6009A2;"></stop><stop offset="0.2779" style="stop-color: #5520AF;"></stop><stop offset="0.4918" style="stop-color: #4346C3;"></stop><stop offset="0.7401" style="stop-color: #2A7BDE;"></stop><stop offset="1" style="stop-color: #0CBAFF;"></stop></linearGradient><path class="st2" d="M305.3,390.6c2.1,5.8,3.3,12.1,3.3,18.6c0,30-24.4,54.3-54.3,54.3c-30,0-54.3-24.4-54.3-54.3   c0-6.1,1-12,2.9-17.5l-33.7-33.7c-9,14.9-14.2,32.4-14.2,51.2c0,54.8,44.4,99.3,99.3,99.3c54.8,0,99.3-44.4,99.3-99.3   c0-19.1-5.4-36.9-14.7-52.1L305.3,390.6z" style="fill: url(#SVGID_3_);"></path><linearGradient id="SVGID_4_" gradientUnits="userSpaceOnUse" x1="253.795" y1="487.6215" x2="253.795" y2="102.8329" style=""><stop offset="0" style="stop-color: #64009E;"></stop><stop offset="0.1069" style="stop-color: #6009A2;"></stop><stop offset="0.2779" style="stop-color: #5520AF;"></stop><stop offset="0.4918" style="stop-color: #4346C3;"></stop><stop offset="0.7401" style="stop-color: #2A7BDE;"></stop><stop offset="1" style="stop-color: #0CBAFF;"></stop></linearGradient><path class="st3" d="M200.4,325.8l33.2,33.2c6.4-2.6,13.3-4.1,20.6-4.1c6.9,0,13.5,1.3,19.6,3.6l33.3-33.3   c-15.3-9.7-33.5-15.3-52.9-15.3C234.4,309.9,215.9,315.8,200.4,325.8z" style="fill: url(#SVGID_4_);"></path><linearGradient id="SVGID_5_" gradientUnits="userSpaceOnUse" x1="254.2496" y1="487.6215" x2="254.2496" y2="102.8329" style=""><stop offset="0" style="stop-color: #64009E;"></stop><stop offset="0.1069" style="stop-color: #6009A2;"></stop><stop offset="0.2779" style="stop-color: #5520AF;"></stop><stop offset="0.4918" style="stop-color: #4346C3;"></stop><stop offset="0.7401" style="stop-color: #2A7BDE;"></stop><stop offset="1" style="stop-color: #0CBAFF;"></stop></linearGradient><circle class="st4" cx="254.2" cy="99.3" r="99.3" style="fill: url(#SVGID_5_);"></circle></svg></g> <g transform="rotate(0 286.9866864034233 415.71063980601457)"><svg xmlns="http://www.w3.org/2000/svg" y="376.4306410267177" viewBox="4.400655746459961 25.84000015258789 242.7793426513672 78.55999755859375" x="165.59701507773968" height="78.55999755859375" width="242.7793426513672" style="overflow: visible;"><g fill="#541594" fill-opacity="1" style=""><path d="M27.41 88.74L27.41 88.74Q23.32 88.74 19.40 88.05Q15.49 87.35 12.14 86.05Q8.79 84.74 6.09 82.74L6.09 82.74Q5.05 81.96 4.65 80.96Q4.26 79.96 4.48 78.96Q4.70 77.96 5.35 77.26Q6.00 76.56 6.96 76.48Q7.92 76.39 9.05 77.09L9.05 77.09Q12.96 79.87 17.40 81.13Q21.84 82.39 27.41 82.39L27.41 82.39Q35.24 82.39 39.02 79.48Q42.81 76.56 42.81 71.78L42.81 71.78Q42.81 67.86 40.07 65.64Q37.32 63.43 30.89 62.12L30.89 62.12L21.84 60.29Q13.66 58.55 9.61 54.59Q5.57 50.64 5.57 44.02L5.57 44.02Q5.57 39.93 7.22 36.59Q8.87 33.24 11.83 30.84Q14.79 28.45 18.88 27.15Q22.97 25.84 27.93 25.84L27.93 25.84Q33.41 25.84 38.15 27.36Q42.89 28.89 46.72 31.93L46.72 31.93Q47.68 32.71 48.03 33.71Q48.37 34.71 48.11 35.63Q47.85 36.54 47.20 37.15Q46.55 37.76 45.55 37.85Q44.55 37.93 43.33 37.15L43.33 37.15Q39.85 34.54 36.11 33.37Q32.37 32.19 27.84 32.19L27.84 32.19Q23.23 32.19 19.88 33.58Q16.53 34.98 14.66 37.63Q12.79 40.28 12.79 43.76L12.79 43.76Q12.79 47.94 15.36 50.38Q17.92 52.81 23.75 53.94L23.75 53.94L32.80 55.86Q41.59 57.68 45.81 61.38Q50.03 65.08 50.03 71.43L50.03 71.43Q50.03 75.26 48.46 78.48Q46.90 81.70 43.94 84.00Q40.98 86.31 36.80 87.53Q32.63 88.74 27.41 88.74ZM62.73 88.40L62.73 88.40Q60.99 88.40 60.12 87.40Q59.25 86.39 59.25 84.57L59.25 84.57L59.25 48.98Q59.25 47.16 60.12 46.20Q60.99 45.24 62.73 45.24L62.73 45.24Q64.38 45.24 65.34 46.20Q66.30 47.16 66.30 48.98L66.30 48.98L66.30 84.57Q66.30 86.39 65.38 87.40Q64.47 88.40 62.73 88.40ZM62.73 35.50L62.73 35.50Q60.55 35.50 59.34 34.32Q58.12 33.15 58.12 31.15L58.12 31.15Q58.12 29.06 59.34 27.97Q60.55 26.88 62.73 26.88L62.73 26.88Q64.99 26.88 66.17 27.97Q67.34 29.06 67.34 31.15L67.34 31.15Q67.34 33.15 66.17 34.32Q64.99 35.50 62.73 35.50ZM97.27 104.40L97.27 104.40Q92.66 104.40 88.27 103.32Q83.87 102.23 80.30 99.88L80.30 99.88Q79.26 99.27 78.96 98.40Q78.65 97.53 78.83 96.70Q79.00 95.88 79.61 95.23Q80.22 94.57 81.04 94.40Q81.87 94.23 82.74 94.66L82.74 94.66Q86.57 97.01 90.05 97.88Q93.53 98.75 96.92 98.75L96.92 98.75Q103.10 98.75 106.28 95.44Q109.45 92.14 109.45 85.87L109.45 85.87L109.45 76.04L110.32 76.04Q109.02 81.09 104.80 84.05Q100.58 87.00 94.92 87.00L94.92 87.00Q89.09 87.00 84.83 84.35Q80.57 81.70 78.26 76.91Q75.95 72.13 75.95 65.86L75.95 65.86Q75.95 61.16 77.26 57.29Q78.56 53.42 81.04 50.68Q83.52 47.94 87.05 46.42Q90.57 44.89 94.92 44.89L94.92 44.89Q100.66 44.89 104.84 47.81Q109.02 50.72 110.23 55.68L110.23 55.68L109.36 56.73L109.36 48.64Q109.36 46.90 110.28 45.98Q111.19 45.07 112.84 45.07L112.84 45.07Q114.58 45.07 115.45 45.98Q116.32 46.90 116.32 48.64L116.32 48.64L116.32 84.92Q116.32 94.57 111.50 99.49Q106.67 104.40 97.27 104.40ZM96.23 81.26L96.23 81.26Q100.32 81.26 103.27 79.39Q106.23 77.52 107.84 74.04Q109.45 70.56 109.45 65.86L109.45 65.86Q109.45 58.81 105.88 54.68Q102.32 50.55 96.23 50.55L96.23 50.55Q92.22 50.55 89.27 52.42Q86.31 54.29 84.70 57.73Q83.09 61.16 83.09 65.86L83.09 65.86Q83.09 72.91 86.66 77.09Q90.22 81.26 96.23 81.26ZM132.16 88.57L132.16 88.57Q130.42 88.57 129.55 87.61Q128.68 86.66 128.68 84.92L128.68 84.92L128.68 48.64Q128.68 46.90 129.55 45.98Q130.42 45.07 132.07 45.07L132.07 45.07Q133.73 45.07 134.64 45.98Q135.55 46.90 135.55 48.64L135.55 48.64L135.55 56.12L134.60 55.07Q136.42 50.03 140.55 47.46Q144.69 44.89 150.08 44.89L150.08 44.89Q155.13 44.89 158.48 46.72Q161.83 48.55 163.48 52.25Q165.13 55.94 165.13 61.60L165.13 61.60L165.13 84.92Q165.13 86.66 164.22 87.61Q163.31 88.57 161.65 88.57L161.65 88.57Q159.91 88.57 159.00 87.61Q158.09 86.66 158.09 84.92L158.09 84.92L158.09 62.03Q158.09 56.12 155.78 53.38Q153.47 50.64 148.43 50.64L148.43 50.64Q142.60 50.64 139.16 54.25Q135.73 57.86 135.73 63.86L135.73 63.86L135.73 84.92Q135.73 88.57 132.16 88.57ZM196.28 88.74L196.28 88.74Q189.58 88.74 184.75 86.09Q179.92 83.44 177.27 78.56Q174.62 73.69 174.62 66.91L174.62 66.91Q174.62 60.29 177.23 55.38Q179.84 50.46 184.40 47.68Q188.97 44.89 194.98 44.89L194.98 44.89Q199.24 44.89 202.63 46.33Q206.03 47.77 208.42 50.46Q210.81 53.16 212.07 56.99Q213.33 60.82 213.33 65.60L213.33 65.60Q213.33 66.99 212.55 67.65Q211.77 68.30 210.29 68.30L210.29 68.30L180.01 68.30L180.01 63.69L208.64 63.69L207.24 64.82Q207.24 60.12 205.85 56.86Q204.46 53.59 201.81 51.85Q199.15 50.11 195.15 50.11L195.15 50.11Q190.71 50.11 187.62 52.16Q184.54 54.20 182.97 57.81Q181.40 61.42 181.40 66.21L181.40 66.21L181.40 66.73Q181.40 74.74 185.27 78.91Q189.15 83.09 196.28 83.09L196.28 83.09Q199.24 83.09 202.15 82.31Q205.07 81.52 207.85 79.70L207.85 79.70Q209.07 78.91 210.07 78.96Q211.07 79.00 211.68 79.57Q212.29 80.13 212.51 80.96Q212.72 81.78 212.33 82.74Q211.94 83.70 210.81 84.39L210.81 84.39Q207.94 86.48 204.02 87.61Q200.11 88.74 196.28 88.74ZM239.61 88.74L239.61 88.74Q234.65 88.74 231.30 86.96Q227.95 85.18 226.30 81.74Q224.64 78.30 224.64 73.34L224.64 73.34L224.64 51.16L218.81 51.16Q217.34 51.16 216.55 50.42Q215.77 49.68 215.77 48.37L215.77 48.37Q215.77 47.07 216.55 46.37Q217.34 45.68 218.81 45.68L218.81 45.68L224.64 45.68L224.64 35.67Q224.64 33.93 225.60 33.02Q226.56 32.10 228.21 32.10L228.21 32.10Q229.86 32.10 230.78 33.02Q231.69 33.93 231.69 35.67L231.69 35.67L231.69 45.68L242.65 45.68Q244.13 45.68 244.92 46.37Q245.70 47.07 245.70 48.37L245.70 48.37Q245.70 49.68 244.92 50.42Q244.13 51.16 242.65 51.16L242.65 51.16L231.69 51.16L231.69 72.65Q231.69 77.61 233.78 80.17Q235.87 82.74 240.57 82.74L240.57 82.74Q242.22 82.74 243.39 82.39Q244.57 82.04 245.35 82.04L245.35 82.04Q246.13 81.96 246.66 82.57Q247.18 83.18 247.18 84.65L247.18 84.65Q247.18 85.70 246.79 86.57Q246.40 87.44 245.44 87.79L245.44 87.79Q244.39 88.14 242.70 88.44Q241.00 88.74 239.61 88.74Z" transform="translate(0, 0)"></path></g></svg></g></svg>